<?xml version="1.0" encoding="utf-8"?>
<!-- Generator: Adobe Illustrator 16.0.0, SVG Export Plug-In . SVG Version: 6.00 Build 0)  -->
<!DOCTYPE svg PUBLIC "-//W3C//DTD SVG 1.1//EN" "http://www.w3.org/Graphics/SVG/1.1/DTD/svg11.dtd">
<svg version="1.1" id="Layer_1" xmlns="http://www.w3.org/2000/svg" xmlns:xlink="http://www.w3.org/1999/xlink" x="0px" y="0px"
	 width="300px" height="300px" viewBox="0 0 300 300" enable-background="new 0 0 300 300" xml:space="preserve">
<circle fill="#FDDFB1" cx="150" cy="150" r="140"/>
<polygon fill="#BEA785" points="23.788,149.493 33.728,134.413 72.03,110.457 117.349,94.02 152.508,84.51 169.004,103.067 
	171.002,108.672 227.001,120.335 243,130 263,139.5 259.145,152.191 248.966,178 240.5,201.321 233.5,206.088 207.121,194.397 
	210,208 210,233 193,233 176,231 157,231 127.167,229.5 108.833,228.167 90.629,224.833 78.5,221.167 82.333,209 83.167,203.333 
	69.667,208.833 57.667,204.833 42,194.397 36.333,174 "/>
<polygon fill="#1A1A1A" points="23.788,141.493 33.728,126.413 72.03,102.457 117.349,86.02 152.508,76.51 169.004,95.067 
	171.002,100.672 227.001,112.335 243,122 263,131.5 259.145,144.191 248.966,170 240.5,193.321 233.5,198.088 207.121,186.397 
	210,200 210,225 193,225 176,223 157,223 127.167,221.5 108.833,220.167 90.629,216.833 78.5,213.167 82.333,201 83.167,195.333 
	69.667,200.833 57.667,196.833 42,186.397 36.333,166 "/>
<polygon fill="#FFFFFF" points="141.457,95.062 155.845,103.001 168.677,106.622 188.975,110.79 213.122,116.044 233.975,121.928 
	250.805,129.793 259.145,132.146 255.062,136.801 251.354,143.803 246.61,156.318 242.961,167.411 239.25,180.563 236.995,191.011 
	231.842,193.321 229.255,190.212 221.555,188.04 215.14,186.229 191.72,179.622 166.071,172.326 144.66,168.422 131.507,164.711 
	121.439,159.884 123.364,153.062 130.332,141.867 135.805,121.245 140.212,104.396 "/>
<polygon fill="#FF931E" points="144.207,100.669 156.732,108.447 175.019,113.606 211.395,119.713 237.7,127.135 248.966,135.081 
	238.372,164.037 233.221,184.751 228.219,181.607 219.471,180.697 182.973,171.958 163.242,166.392 128.595,156.616 
	130.426,149.514 136.478,144.64 139.69,129.57 "/>
<polygon fill="#1A1A1A" points="179,148.875 200.632,150 215.316,156.75 211.283,166 207.318,177.783 207.357,187.479 
	193.636,181.75 179,156.5 "/>
<polygon fill="#FFFFFF" points="204.253,222.682 188.487,218.047 175.176,217.292 154.457,217.617 129.744,217.716 108.112,216.488 
	89.979,212.454 81.327,211.963 84.305,206.534 86.408,198.896 88.33,185.649 89.49,174.03 90.265,160.386 90.204,149.698 
	94.735,146.327 97.934,148.803 105.921,149.255 112.576,149.634 136.871,151.013 163.491,152.581 185.239,151.757 198.885,152.531 
	209.759,155.063 209.356,162.141 204.979,174.578 204.102,195.897 203.447,213.3 "/>
<polygon fill="#00A99D" points="200.354,217.803 186.441,212.922 167.472,211.847 130.637,213.761 103.348,212.212 90.629,206.894 
	94.701,176.33 95.244,154.992 100.808,156.979 109.546,155.973 147.07,156.601 167.538,157.763 203.48,159.803 203.23,167.134 
	198.378,173.202 198.505,188.61 "/>
<polygon fill="#1A1A1A" points="83,195.333 95.667,193.321 136.208,175.5 180.715,158.512 175.989,135.5 171.411,102.417 83,173.5 
	"/>
<polygon fill="#4D4D4D" points="48.301,123.047 85.696,102.07 109.644,93.082 150.026,81.088 166.809,102.09 176,139.591 176,159 
	150,168.09 123.092,178.589 93.093,192.088 67.594,198.088 48.301,184.589 28.596,139.588 31.5,133.5 "/>
<polygon fill="#1A1A1A" points="72.333,150.004 74.333,127.335 89.333,112.334 108.333,108.334 133.667,117.334 139,139.167 
	139,155 124.667,171.334 102.298,174.334 77,166 "/>
<polygon fill="#AB3DA0" points="89.333,117.5 81.5,126.25 77,135 77,150 83.333,159.5 102.298,166 122,166 132,150 132,131 
	121.667,117.5 102.298,112.333 "/>
<polygon fill="#A9DDF3" points="128,101.5 132,107 134.5,112.333 143.5,109 150,104 150,95 147,92.5 132,96.5 "/>
<polygon fill="#333333" points="52.5,127.645 35,136 35,143 49.5,178 69.5,193.321 98.5,182 72.333,184.504 56.5,174.334 
	43.5,142.71 "/>
<polygon fill="#DDB1D9" points="90.379,124.258 82.875,133.879 81.265,144.131 82.969,154.962 95.484,157.743 104.5,160 114,160 
	121.439,156.172 127.556,146.327 115.5,156 104.5,154.992 90.629,150.755 86.5,144.191 "/>
<polygon fill="#00554F" points="175.875,163.125 180.652,161.688 198.969,162.469 192.88,174.193 195.25,209 168,209 187.25,201.75 
	190.292,187.479 186.25,174.334 191.5,166 "/>
<polygon fill="#804A0F" points="183.488,119.323 209.761,124.17 236.001,131.956 242.5,139.145 230.504,176.988 213,174.334 
	213,168 218.5,168 227,168 233.5,144.191 231,135.5 215.316,130 "/>
</svg>
