<?xml version="1.0" encoding="utf-8"?>
<!-- Generator: Adobe Illustrator 16.0.0, SVG Export Plug-In . SVG Version: 6.00 Build 0)  -->
<!DOCTYPE svg PUBLIC "-//W3C//DTD SVG 1.1//EN" "http://www.w3.org/Graphics/SVG/1.1/DTD/svg11.dtd">
<svg version="1.1" id="Layer_1" xmlns="http://www.w3.org/2000/svg" xmlns:xlink="http://www.w3.org/1999/xlink" x="0px" y="0px"
	 width="300px" height="300px" viewBox="0 0 300 300" enable-background="new 0 0 300 300" xml:space="preserve">
<circle fill="#6DA7C0" cx="150" cy="150" r="140"/>
<polygon fill="#527D90" points="7.333,148.667 25.333,157 40,158.667 71.333,198.167 91,213.667 103,239.667 148.833,255.333 
	154,267 152,274 173,271.667 189.667,244.667 216.334,215 237,185.667 245,162.334 261,138.856 280,117.333 289,108.167 296.5,92.5 
	258.5,90.085 221.5,76.126 195.5,73 178.483,62.334 154,40 126.666,27.5 77.5,17 63.5,40.5 62,66 52,80 35,112 "/>
<polygon fill="#1A1A1A" points="5.333,141.667 23.333,150 38,151.667 69.333,191.167 89,206.667 101,232.667 146.833,248.333 
	152,260 150,267 171,264.667 187.667,237.667 214.334,208 235,178.667 243,155.334 259,131.856 278,110.333 287,101.167 294.5,85.5 
	256.5,83.085 219.5,69.126 193.5,66 176.483,55.334 152,33 124.666,20.5 75.5,10 61.5,33.5 60,59 50,73 33,105 "/>
<polygon fill="#F5D3BC" points="74.5,14.75 101.25,18.875 123.375,23.188 144.938,32.594 155.969,44.547 176.484,63.023 
	181.992,67.762 198,73 219,73 244.5,82.25 277,90 291,90 286.5,96.5 274.5,103.5 262,118 252.5,130 245,144.5 234.5,160 
	228.5,173.5 221,192.5 210,210.5 185.5,235.75 167,263 153,263 157,255.5 150.5,247 139.5,243 128.5,237.5 104.5,228.5 91,202.5 
	71.5,188 39,149 20,146.5 8.5,141 42,101 60,69.5 65.5,39 "/>
<polygon fill="#333333" points="177.666,92 192.334,96 202,96 205,101.667 213,107 222,107 207.667,110.333 199.833,103.667 
	180.334,96.333 "/>
<polygon fill="#333333" points="181.666,115.181 195.011,119 203.805,119 206.534,124.152 213.813,129 222,129 208.96,131.856 
	201.833,125.703 184.094,119.077 "/>
<polygon fill="#333333" points="124.666,182 139.334,186 149,186 152,191.667 160,197 169,197 154.667,200.334 146.833,193.667 
	127.334,186.334 "/>
<polygon fill="#333333" points="77.666,37 92.334,41 102,41 105,46.667 113,52 122,52 107.667,55.334 99.833,48.667 80.334,41.334 
	"/>
<polygon fill="#B89E8D" points="169,124.167 149.75,156.334 159.375,159.667 169,166.334 181.666,173.667 186.333,182 
	191.667,172.334 197,159.667 203.833,153.084 207.667,143 185.667,133.333 "/>
<polygon fill="#B89E8D" points="76.042,55.167 66.75,70.695 71.396,72.304 76.042,75.522 82.157,79.063 84.41,83.085 86.985,78.419 
	89.559,72.304 92.858,69.126 94.708,64.258 84.088,59.592 "/>
<polygon fill="#B89E8D" points="79,193.789 81.357,182 89.929,166.5 105.964,138.875 124.648,128 128.991,115 138.996,101.167 
	149.998,89 165.499,73 176.483,63.023 160.5,72 124.666,115 122,124.167 105,133.333 85.732,168 79,184.75 "/>
<polygon fill="#333333" points="137,118 147,118 149.583,123.519 156,124.167 156,132 153.667,126.667 146.5,125 144.167,119.833 
	"/>
<polygon fill="#333333" points="152,170 162,170 164.583,175.519 171,176.167 171,184 168.667,178.667 161.5,177 159.166,171.834 
	"/>
<polygon fill="#333333" points="121,59 131,59 133.583,64.519 140,65.167 140,73 137.667,67.667 130.5,66 128.166,60.834 "/>
<polygon fill="#333333" points="131,128 139,128 142.5,135.063 150,139 140,139 137,132 "/>
<polygon fill="#B89E8D" points="89.667,101.167 80.729,110.333 73,115.181 81.333,118 89.667,128 94.708,133.5 99.833,123.519 
	106.333,115.181 110.333,110.333 91.667,98.333 "/>
<polygon fill="#333333" points="103,79 112,79 114,83 122,83 122,88 130.5,92 121,92 121,86 110,85.5 110,81 "/>
</svg>
