<?xml version="1.0" encoding="utf-8"?>
<!-- Generator: Adobe Illustrator 16.0.0, SVG Export Plug-In . SVG Version: 6.00 Build 0)  -->
<!DOCTYPE svg PUBLIC "-//W3C//DTD SVG 1.1//EN" "http://www.w3.org/Graphics/SVG/1.1/DTD/svg11.dtd">
<svg version="1.1" id="Layer_1" xmlns="http://www.w3.org/2000/svg" xmlns:xlink="http://www.w3.org/1999/xlink" x="0px" y="0px"
	 width="300px" height="300px" viewBox="0 0 300 300" enable-background="new 0 0 300 300" xml:space="preserve">
<circle fill="#FF7BAC" cx="150" cy="150" r="140"/>
<ellipse fill="#BF5C81" cx="134.148" cy="250.39" rx="100.148" ry="11.389"/>
<polygon fill="#1A1A1A" points="61.5,119.5 64.688,127.308 66.438,136.808 67.25,142.75 69,158 67,178.154 67,192 67.122,207.5 
	65,221.31 65,233 65,243.5 72,252.5 89,253.5 117,254.75 126,257 135,253 146.667,252.667 159.5,255 176.25,253.5 180,251 
	190,238.167 190.834,223.667 189.167,188.491 187,177.869 186,166.75 185.396,154 186,119.75 187,112.31 189.75,109.5 187,98 
	179.5,91 89.5,86 61.5,95.669 57.333,106.002 62,115.002 "/>
<polygon fill="#C69C6D" points="67.625,122.667 70,133.667 72,145.49 72,164.736 67.625,222.475 69.812,243.736 80.748,251 
	92.996,251 127.988,251 157.733,251 176.979,251 187,239.098 187,225.975 187,203.229 182,162.986 182,134.991 180.888,119.579 
	179.888,111.045 150.734,101 99.994,101 80.966,102.905 67.958,106.592 70,112 "/>
<polygon fill="#8C6239" points="70.207,172.645 85.122,165 101.744,165 115.741,165 143.735,165 182,157.737 182,176.984 
	185.396,188.729 157.733,193 126.239,193 105.243,198 84.247,198 70.25,198 "/>
<polygon fill="#1A1A1A" points="92,157.125 89,169.5 89,188 90.5,200.5 98.75,218.75 116.75,224.5 138.5,218.5 157,205 
	161.25,157.737 138.5,134 123,134 104,137.25 "/>
<polygon fill="#7FCDEE" points="97,157.737 97,150.739 106.662,139.37 119.824,135 136.736,135 145.702,146.369 157,157.737 
	157,178.733 153.283,205.563 134.22,217.227 115.649,221.31 100.326,216.061 92,187.481 92,168.235 "/>
<polygon fill="#1A1A1A" points="68,115 96,115 127.802,112.31 146.75,110.5 169.5,112.31 179.25,112.75 182.75,112.31 187,102.655 
	136.5,99.5 90,101 62.793,109.927 "/>
<polygon fill="#CCCCCC" points="60,104.792 62.793,109.927 65.001,112 73.749,112 91.246,112 117.491,112 132.071,109 145.484,109 
	163.564,108.792 176.642,112.31 186,108.665 186,101.749 179.896,93 162.981,93 136.736,93 119.24,93 91.246,93 73.527,97.083 
	60,101.749 "/>
<polygon fill="#32271B" points="73.698,205.666 70.254,219.667 72,231.834 72,240 88,246.667 164.5,244.834 100.167,240.501 
	80.833,232.001 77,224.5 74,214.501 "/>
<polygon fill="#32271B" points="74.333,166 83,163 83,153.333 91.833,142 82.583,135 96.625,131.333 81.979,126.167 88.99,125.021 
	101.333,123 115,123 101.667,118 78,118 73,126.333 73,137 76.25,150 "/>
<polygon fill="#333333" points="65.5,102.988 92,95 177,95 92,98.994 70.254,104.333 84.333,107.25 62.793,104.667 "/>
<polygon fill="#E8D7C5" points="157,118 168.333,125 172.333,138.333 177,142 177,123 167,115 "/>
<polygon fill="#1F80AA" points="101.5,150 99,165 96,179.25 98.75,194.5 101.5,205.666 110.5,213.5 124.896,211 110.448,205.666 
	102.5,190.5 101,176 103,161.5 "/>
</svg>
